<?xml version="1.0" encoding="UTF-8" standalone="no" ?>
<!DOCTYPE svg PUBLIC "-//W3C//DTD SVG 1.1//EN" "http://www.w3.org/Graphics/SVG/1.1/DTD/svg11.dtd">
<svg xmlns="http://www.w3.org/2000/svg" xmlns:xlink="http://www.w3.org/1999/xlink" version="1.1" width="1080" height="1080" viewBox="0 0 1080 1080" xml:space="preserve">
<desc>Created with Fabric.js 4.2.0</desc>
<defs>
</defs>
<g transform="matrix(1 0 0 1 540 540)" id="98447d66-4a8d-4302-8edf-3b5e42cbd491"  >
<rect style="stroke: none; stroke-width: 1; stroke-dasharray: none; stroke-linecap: butt; stroke-dashoffset: 0; stroke-linejoin: miter; stroke-miterlimit: 4; fill: rgb(255,255,255); fill-opacity: 0; fill-rule: nonzero; opacity: 1;" vector-effect="non-scaling-stroke"  x="-540" y="-540" rx="0" ry="0" width="1080" height="1080" />
</g>
<g transform="matrix(1 0 0 1 540 540)" id="be20d74f-45a1-47e8-91c8-9de65b4185f1"  >
</g>
<g transform="matrix(3.75 0 0 3.75 540 922.86)"  >
<g style="" vector-effect="non-scaling-stroke"   >
		<g transform="matrix(1 0 0 1 -18.09 -166.34)"  >
<polygon style="stroke: none; stroke-width: 1; stroke-dasharray: none; stroke-linecap: butt; stroke-dashoffset: 0; stroke-linejoin: miter; stroke-miterlimit: 4; fill: rgb(140,140,140); fill-rule: nonzero; opacity: 1;" vector-effect="non-scaling-stroke"  points="19.99,-44.75 -19.99,21.15 19.9,44.75 19.99,-44.75 " />
</g>
		<g transform="matrix(1 0 0 1 -18.07 -142.37)"  >
<polygon style="stroke: none; stroke-width: 1; stroke-dasharray: none; stroke-linecap: butt; stroke-dashoffset: 0; stroke-linejoin: miter; stroke-miterlimit: 4; fill: rgb(56,56,56); fill-rule: nonzero; opacity: 1;" vector-effect="non-scaling-stroke"  points="-19.87,-2.69 19.87,-20.81 19.83,20.81 -19.87,-2.69 " />
</g>
		<g transform="matrix(1 0 0 1 21.71 -166.34)"  >
<polygon style="stroke: none; stroke-width: 1; stroke-dasharray: none; stroke-linecap: butt; stroke-dashoffset: 0; stroke-linejoin: miter; stroke-miterlimit: 4; fill: rgb(51,51,51); fill-rule: nonzero; opacity: 1;" vector-effect="non-scaling-stroke"  points="-19.99,-44.75 19.99,21.15 -19.9,44.75 -19.99,-44.75 " />
</g>
		<g transform="matrix(1 0 0 1 21.68 -142.37)"  >
<polygon style="stroke: none; stroke-width: 1; stroke-dasharray: none; stroke-linecap: butt; stroke-dashoffset: 0; stroke-linejoin: miter; stroke-miterlimit: 4; fill: rgb(20,20,20); fill-rule: nonzero; opacity: 1;" vector-effect="non-scaling-stroke"  points="19.87,-2.69 -19.87,-20.81 -19.83,20.81 19.87,-2.69 " />
</g>
		<g transform="matrix(1 0 0 1 -18.09 -109.55)"  >
<polygon style="stroke: none; stroke-width: 1; stroke-dasharray: none; stroke-linecap: butt; stroke-dashoffset: 0; stroke-linejoin: miter; stroke-miterlimit: 4; fill: rgb(140,140,140); fill-rule: nonzero; opacity: 1;" vector-effect="non-scaling-stroke"  points="-19.85,-27.95 19.85,27.95 19.85,-4.46 -19.85,-27.95 " />
</g>
		<g transform="matrix(1 0 0 1 21.61 -109.55)"  >
<polygon style="stroke: none; stroke-width: 1; stroke-dasharray: none; stroke-linecap: butt; stroke-dashoffset: 0; stroke-linejoin: miter; stroke-miterlimit: 4; fill: rgb(51,51,51); fill-rule: nonzero; opacity: 1;" vector-effect="non-scaling-stroke"  points="19.85,-27.95 -19.85,27.95 -19.85,-4.46 19.85,-27.95 " />
</g>
		<g transform="matrix(1 0 0 1 2.13 -135.6)"  >
<path style="stroke: none; stroke-width: 1; stroke-dasharray: none; stroke-linecap: butt; stroke-dashoffset: 0; stroke-linejoin: miter; stroke-miterlimit: 4; fill: rgb(63,61,86); fill-rule: nonzero; opacity: 1;" vector-effect="non-scaling-stroke"  transform=" translate(-694.81, -195.37)" d="M 694.80906 296.87075 C 673.33689 296.87075 651.9448 282.11147 634.57297 255.31167 C 619.29807 231.74672999999999 609.80906 202.4562 609.80906 178.87075 C 609.80906 131.92654626438255 647.8648562643826 93.87074999999999 694.80906 93.87074999999999 C 741.7532637356175 93.87074999999999 779.80906 131.92654626438252 779.80906 178.87074999999996 C 779.80906 202.4562 770.32006 231.74675 755.0451400000001 255.31167 C 737.67331 282.11147 716.28122 296.87075 694.80906 296.87075 Z M 694.80906 95.87074999999999 C 648.9908637114263 95.92246450978108 611.8607745097811 133.0525537114262 611.80906 178.87075000000002 C 611.80906 224.67836999999997 648.99289 294.87075 694.80906 294.87075 C 740.6252300000001 294.87075 777.80906 224.67836999999997 777.80906 178.87075 C 777.757339991191 133.05255599283498 740.627254007165 95.92247000880904 694.80906 95.87075 Z" stroke-linecap="round" />
</g>
		<g transform="matrix(1 0 0 1 2.13 -26.1)"  >
<path style="stroke: none; stroke-width: 1; stroke-dasharray: none; stroke-linecap: butt; stroke-dashoffset: 0; stroke-linejoin: miter; stroke-miterlimit: 4; fill: rgb(63,61,86); fill-rule: nonzero; opacity: 1;" vector-effect="non-scaling-stroke"  transform=" translate(-694.81, -304.87)" d="M 702.82248 314.87075 L 686.79563 314.87075 C 685.2790618731732 314.8707753727337 683.8444508982991 314.1824543341589 682.8954842863076 312.9994745146878 C 681.9465176743162 311.81649469521665 681.585776414467 310.2667333442931 681.91477 308.78628 L 685.00677 294.87075 L 704.6113 294.87075 L 707.7033 308.78628 C 708.032293585533 310.2667333442931 707.6715523256838 311.81649469521665 706.7225857136924 312.9994745146878 C 705.7736191017009 314.1824543341589 704.3390081268268 314.8707753727337 702.82244 314.87075 Z M 686.6113 296.87075 L 683.86692 309.21987 C 683.6695648715549 310.1081897338677 683.8860459646107 311.03807368656584 684.4554536777716 311.74788764282135 C 685.0248613909326 312.45770159907687 685.8856514311856 312.8707254915304 686.7956300000001 312.87075 L 702.82248 312.87075 C 703.7324585688145 312.8707254915304 704.5932486090675 312.45770159907687 705.1626563222285 311.74788764282135 C 705.7320640353894 311.03807368656584 705.9485451284452 310.1081897338677 705.7511900000001 309.21987 L 703.0068100000001 296.87075000000004 Z" stroke-linecap="round" />
</g>
		<g transform="matrix(1 0 0 1 -50.34 -187.28)"  >
<path style="stroke: none; stroke-width: 1; stroke-dasharray: none; stroke-linecap: butt; stroke-dashoffset: 0; stroke-linejoin: miter; stroke-miterlimit: 4; fill: rgb(63,61,86); fill-rule: nonzero; opacity: 1;" vector-effect="non-scaling-stroke"  transform=" translate(-642.35, -143.69)" d="M 655.24913 118.73207 C 642.0530230828655 126.74505129038162 632.5637350772093 139.65414143326058 628.8536200000001 154.64014 C 627.8276146806558 158.80804887009438 627.282516865234 163.07978742084973 627.2289900000001 167.37179 C 627.2569914825228 168.18000195090877 627.9202931219207 168.82072068212878 628.7289900000001 168.82072068212878 C 629.5376868780794 168.82072068212878 630.2009885174773 168.18000195090877 630.2289900000001 167.37179 C 630.5337985404344 152.78980643754366 636.5782408088907 138.9166310026362 647.0499900000001 128.76431000000002 C 649.9873978518534 125.91449020243556 653.2471789705255 123.41700950597017 656.7632600000001 121.32249 C 657.4474586226821 120.89058977018816 657.6662444088869 119.9941339026948 657.2579354142941 119.29560020363203 C 656.8496264197015 118.59706650456927 655.9611556714648 118.34782751858152 655.2491000000001 118.73207 Z" stroke-linecap="round" />
</g>
		<g transform="matrix(1 0 0 1 0 100.73)"  >
<path style="stroke: none; stroke-width: 1; stroke-dasharray: none; stroke-linecap: butt; stroke-dashoffset: 0; stroke-linejoin: miter; stroke-miterlimit: 4; fill: rgb(63,61,86); fill-rule: nonzero; opacity: 1;" vector-effect="non-scaling-stroke"  transform=" translate(-692.68, -431.69)" d="M 680.91654 298.75515 C 699.03916 297.8275 719.6617600000001 297.33315 733.7855400000001 310.70072 C 739.6766200000001 316.27639999999997 743.3933200000001 323.74827 743.1692 331.96215 C 742.9253100000001 340.90065 738.3800200000001 349.27372 732.7471400000001 355.98877 C 720.6212 370.44433 702.83761 379.48272 685.78323 386.7676 C 667.65723 394.51025000000004 648.77434 400.5566 631.35892 409.89967 C 616.068 418.103 601.81494 429.176 592.57768 444.093 C 588.0332146220253 451.3233431243818 585.019143604871 459.40851434903965 583.72158 467.84927000000005 C 582.5301990939407 476.31023751956724 582.95884478785 484.92059328978735 584.98467 493.2214 C 589.05258 510.23523 599.0678300000001 525.27189 612.4133 536.44493 C 625.9187300000001 547.75193 642.27939 555.28138 659.22965 559.77993 C 679.3518 565.12023 700.31787 566.32893 721.05065 566.44975 C 742.46348 566.57448 763.8941100000001 565.52675 785.29211 566.72696 C 790.497 567.0188999999999 795.6928399999999 567.44988 800.87142 568.0499599999999 C 802.78571 568.27177 802.76982 565.26996 800.87142 565.0499599999999 C 779.4946699999999 562.57296 757.95022 563.14042 736.47763 563.3832399999999 C 715.42643 563.6212999999999 694.19686 563.5479899999999 673.4067299999999 559.8312399999999 C 655.4814899999999 556.6266199999999 637.9064099999999 550.6206499999998 622.7036599999999 540.4342399999998 C 608.1412199999999 530.6768899999998 596.2730499999999 516.9951299999998 590.2673199999999 500.3932399999998 C 584.4009199999999 484.1764299999998 584.46232 466.2291599999998 592.31764 450.6828999999998 C 600.18294 435.1167999999998 613.90264 423.3413099999998 628.81117 414.7483499999998 C 646.0158399999999 404.8319299999998 664.9600499999999 398.6261399999998 683.23691 391.0649499999998 C 700.5 383.92305 718.157 375.407 731.41794 361.90558 C 737.55906 355.65307 742.81943 348.04337 745.0705800000001 339.48152 C 747.2922208935883 331.38681722164193 746.0601605664385 322.73339100775945 741.66758 315.58041 C 737.320697337891 308.9258516591441 731.1150939982526 303.69451191992346 723.82117 300.53583999999995 C 715.01841 296.56945999999994 705.25142 295.42603999999994 695.68068 295.32942999999995 C 690.7557300000001 295.27971999999994 685.8336800000001 295.5034299999999 680.91651 295.75514999999996 C 678.99545 295.85347999999993 678.98375 298.85407999999995 680.91651 298.75514999999996 Z" stroke-linecap="round" />
</g>
</g>
</g>
</svg>